<svg width="34" height="30" viewBox="0 0 34 30" fill="none" xmlns="http://www.w3.org/2000/svg">
<path d="M4.17829 15.0405C3.62243 15.0453 0.577708 15.1006 0.293767 14.9581C0.135175 14.8785 0.0425253 14.7341 0.00786381 14.5887C-0.0188045 14.4768 0.0243236 14.3033 0.107453 14.2122C0.334606 13.9635 2.95384 12.4952 3.51881 12.1607L12.3875 6.94836C13.7328 6.16378 15.0806 5.38275 16.4251 4.59673C16.8738 4.34544 16.9825 4.25442 17.465 4.53069C19.1381 5.48855 20.7814 6.47366 22.4477 7.43906C22.9534 7.7322 23.4875 8.02872 23.9682 8.34669C23.9776 8.01648 23.9914 7.68636 24.0096 7.35641C24.14 7.18274 24.2225 7.12765 24.4336 7.02061C25.533 6.99468 26.8588 7.00216 27.959 7.017C28.1922 7.13574 28.2416 7.18455 28.3772 7.38032C28.3935 8.56352 28.3968 9.74677 28.3873 10.93L32.0889 13.1115C32.6041 13.4185 33.1404 13.7232 33.6429 14.0421C33.8369 14.1739 33.9775 14.2816 33.9986 14.4934C34.0193 14.7006 33.8104 14.974 33.5477 15.0021C33.1459 15.0451 32.6921 15.0285 32.2782 15.0285C31.4484 15.0236 30.6182 15.0271 29.7887 15.0389L29.788 21.7392C29.7949 22.5462 29.7942 23.3535 29.7854 24.1605C29.7858 24.6624 29.809 25.1791 29.7818 25.6784C29.707 25.7656 29.7542 26.3606 29.732 26.5368L29.5885 26.4788C29.4748 26.4833 29.485 26.5037 29.3756 26.5796C29.1976 26.5983 29.348 26.5297 29.1427 26.4508C28.9458 26.5445 29.0868 26.5359 28.9276 26.6733L28.8299 26.642L28.7794 26.681C28.7205 26.6107 28.7554 26.6222 28.6824 26.6051C28.6446 26.6914 28.6199 26.7783 28.5447 26.8427C28.4342 26.5595 28.6155 25.2967 28.4887 25.1135L28.4851 18.0405L28.4865 15.8487C28.4865 15.4545 28.4295 14.4548 28.6315 14.148C29.0864 13.8611 30.6491 13.9727 31.3194 13.9624C30.5313 13.4961 29.7386 13.0351 28.9411 12.5796C28.4269 12.2862 27.8743 11.9723 27.3824 11.6518C27.0201 11.416 27.0906 11.1815 27.0884 10.8286C27.0826 9.90583 27.1059 8.97727 27.0968 8.05243C26.4973 8.0568 25.8982 8.05364 25.2991 8.04303C25.3016 8.51782 25.5661 10.0436 24.62 9.93844C24.2632 9.89877 23.1961 9.17529 22.8244 8.95909L18.9041 6.68726C18.3355 6.35613 17.5678 5.86301 17.0021 5.56937C15.5734 6.37431 14.1066 7.26152 12.6906 8.0897L2.69548 13.9636C5.88164 13.9781 5.47846 13.6452 5.47973 16.1852L5.47918 19.1947L5.47973 28.1463L17.3941 28.1484L21.3526 28.1404C21.6948 28.1413 22.6424 28.1203 22.9443 28.1466C23.2103 28.1744 23.9053 28.1303 24.0765 28.2306C24.0834 28.3207 24.0681 28.3163 24.0129 28.4047C24.0656 28.483 24.0416 28.4564 24.1273 28.5146C24.0067 28.7402 23.8399 28.6524 23.9369 28.8744C23.7171 28.9589 23.3959 28.8974 23.2179 28.966C22.9447 29.0715 23.0421 29.1312 22.6893 29.1921C22.2228 29.2297 21.6494 29.1966 21.1771 29.1995C20.6942 29.2025 20.2103 29.2004 19.7267 29.2037L12.0729 29.2111L7.21211 29.2125C6.41119 29.214 5.57641 29.2232 4.77382 29.2054C4.68073 29.2128 4.37772 29.115 4.33437 29.044C4.09941 28.6592 4.18174 27.5288 4.17967 27.1333L4.18214 23.8965L4.17829 15.0405Z" fill="url(#paint0_linear_100_1739)"/>
<path d="M28.4887 25.1135C28.6155 25.2968 28.4342 26.5596 28.5447 26.8428C28.6199 26.7783 28.6446 26.6914 28.6824 26.6051C28.7554 26.6223 28.7205 26.6107 28.7794 26.6811L28.8299 26.6421L28.9276 26.6734C29.0867 26.5359 28.9458 26.5445 29.1427 26.4508C29.348 26.5297 29.1976 26.5983 29.3756 26.5797C29.485 26.5037 29.4748 26.4833 29.5885 26.4789L29.732 26.5368C29.7542 26.3607 29.7069 25.7656 29.7818 25.6784C29.8065 26.1313 29.8501 28.6424 29.728 28.92L29.7091 28.9634C29.5671 29.0979 29.5529 29.1038 29.3647 29.1884C28.1723 29.259 26.57 29.1786 25.3412 29.202C24.8304 29.2117 23.134 29.2324 22.6893 29.1922C23.0421 29.1313 22.9447 29.0716 23.2179 28.9661C23.3959 28.8975 23.7171 28.959 23.9369 28.8744C23.8399 28.6524 24.0067 28.7402 24.1273 28.5147C24.0416 28.4565 24.0656 28.4831 24.0129 28.4047C24.0681 28.3163 24.0834 28.3208 24.0765 28.2306C23.9053 28.1304 23.2103 28.1745 22.9443 28.1467C23.1445 28.1295 23.3785 28.1286 23.5805 28.1307C25.2042 28.1484 26.849 28.1159 28.4698 28.1446C28.5036 27.1567 28.4851 26.1059 28.4887 25.1135Z" fill="#008001" fill-opacity="0.4"/>
<path d="M15.4178 11.5156C15.3124 12.0129 15.3404 12.1994 15.6165 12.6415C15.2639 12.6941 14.9182 12.7503 14.5768 12.842C12.8106 13.3164 11.2028 14.3838 10.3219 15.7197C10.1872 15.924 10.0543 16.1277 9.92618 16.3336L9.89624 16.2809L9.96055 16.136L9.81612 16.165L9.80657 16.1273C9.81943 16.121 10.0279 16.0227 10.0215 16.0316C10.1781 15.814 10.4359 15.4607 10.5735 15.2509C10.4344 15.2838 10.4234 15.2886 10.2867 15.251C10.0719 15.3305 10.0065 15.6411 9.88054 15.6579C9.74891 15.5935 9.81351 15.6 9.68689 15.6075L9.62836 15.7086C9.49298 15.7026 9.51256 15.6388 9.49934 15.5385C9.41032 15.4613 9.38329 15.4458 9.35713 15.3363C9.42126 15.0796 9.72954 15.1697 9.55932 14.9066C9.12351 14.732 8.53779 16.4691 8.30817 16.6018C8.46465 16.0973 9.04939 15.1455 9.42224 14.7101C10.9277 12.9522 12.8653 11.929 15.4178 11.5156Z" fill="#23B2E4"/>
<path d="M11.1167 24.4103L11.1871 24.3878C12.9703 25.5167 14.2546 25.9235 16.5091 26.1265C16.8045 26.0042 16.6526 25.3497 16.6264 25.1247C16.4695 25.0313 14.6183 24.9382 14.3578 24.6536C15.3965 24.9081 15.8723 25.0251 16.9934 25.0254L16.9905 26.1789C14.9527 26.201 12.6396 25.5158 11.1167 24.4103Z" fill="#306297"/>
<path d="M18.596 11.5426C20.9729 11.8715 23.0849 12.9688 24.4518 14.5847C25.8168 16.1789 26.3531 18.1468 25.9443 20.061C25.5109 22.0068 24.147 23.7333 22.1512 24.8622C20.6365 25.7192 18.8355 26.1785 16.9905 26.1788L16.9934 25.0254C17.1612 25.0233 17.3324 25.0225 17.4999 25.0142C21.5804 24.8132 24.7632 21.9444 24.66 18.6476C24.6204 16.9765 23.7571 15.3883 22.2645 14.2399C21.1902 13.4009 19.8332 12.8412 18.3664 12.6324C18.6741 12.2173 18.6669 12.0192 18.596 11.5426Z" fill="url(#paint1_linear_100_1739)"/>
<path d="M13.6197 15.0436C13.868 15.4193 14.8062 16.7038 14.9022 17.0057C15.0164 17.1334 15.1528 17.3568 15.2444 17.501C15.6229 18.0963 16.0176 18.6979 16.2805 19.3356C16.8059 20.6109 16.0495 21.9113 14.4794 22.3171C13.742 22.5066 12.9417 22.4439 12.2623 22.1436C11.6133 21.8666 11.1281 21.3895 10.9155 20.819C10.7973 20.4823 10.7728 20.1284 10.8438 19.7831C11.0508 18.7698 12.3882 16.9085 13.0241 15.9708C13.2311 15.6614 13.416 15.3493 13.6197 15.0436Z" fill="url(#paint2_linear_100_1739)"/>
<path d="M13.6198 15.0436C13.868 15.4193 14.8062 16.7038 14.9022 17.0057L14.8359 16.9892C14.7344 16.8114 14.7348 16.7375 14.4922 16.6898C14.3784 16.7215 14.4139 16.6912 14.367 16.7692L14.4316 16.8411C14.4054 16.9467 14.3041 16.8502 14.2357 16.8772C14.0377 16.9554 13.8341 17.1823 13.5943 17.142C13.087 16.8075 13.5802 16.2131 13.0242 15.9708C13.2312 15.6614 13.416 15.3493 13.6198 15.0436Z" fill="#23B2E4"/>
<path d="M11.4243 19.8307C11.838 19.8567 11.7742 20.3146 11.8976 20.6097C12.2081 21.3525 12.7701 21.513 13.6602 21.6002C13.7554 21.6097 13.798 21.673 13.84 21.7291C13.8301 21.858 13.8398 21.8131 13.7294 21.9316C13.2474 22.0377 12.6457 21.8604 12.2477 21.6342C11.755 21.3513 11.4231 20.9189 11.327 20.4347C11.2864 20.2364 11.2792 19.9981 11.4243 19.8307Z" fill="white"/>
<path d="M18.0525 15.1772C19.016 15.2297 20.19 15.136 21.0303 15.199C20.598 15.8422 20.2074 16.5887 19.7903 17.2467C19.6362 17.49 19.4996 17.7965 19.347 18.0383C19.9919 18.1018 20.9141 18.075 21.5782 18.0802C20.9166 18.7186 20.2873 19.4835 19.6246 20.1307C19.5102 20.2426 19.0142 20.7916 18.9034 20.8637C18.5136 21.3334 17.9893 21.7892 17.5762 22.2421C17.5558 22.1291 17.5609 21.9763 17.5373 21.9009L17.412 22.0077C17.6507 21.4868 17.861 21.0118 18.1401 20.5033C18.2353 20.2401 18.5786 19.5847 18.7196 19.2688C18.3799 19.2831 17.8966 19.2658 17.5428 19.2601C17.303 19.2601 17.0628 19.2638 16.823 19.2712C16.9393 18.7538 17.0523 18.4069 17.2321 17.9088C17.4843 17.2653 17.8625 15.8762 18.0525 15.1772Z" fill="url(#paint3_linear_100_1739)"/>
<path d="M18.14 20.5033C18.232 20.7265 17.8505 21.0235 17.8377 21.2816C17.9122 21.4143 18.0376 21.4735 18.2203 21.435C18.4376 21.2784 18.6923 20.9225 18.9034 20.8636C18.5135 21.3333 17.9893 21.7892 17.5761 22.242C17.5558 22.1291 17.5609 21.9763 17.5373 21.9009L17.4119 22.0076C17.6506 21.4868 17.861 21.0117 18.14 20.5033Z" fill="#E9913E"/>
<path d="M17.2321 17.9088C17.4348 18.3398 17.1642 18.9324 17.5428 19.26C17.303 19.26 17.0628 19.2638 16.823 19.2712C16.9393 18.7538 17.0523 18.4069 17.2321 17.9088Z" fill="#EEBA45"/>
<path d="M16.2344 11.3646C16.6217 11.0243 17.2756 11.0065 17.6902 11.3249C18.0335 11.5888 18.1109 12.0095 17.8773 12.3435C17.6822 12.6224 17.308 12.7855 16.9145 12.763C16.521 12.7405 16.1784 12.5363 16.0334 12.238C15.8882 11.9397 15.9664 11.6001 16.2344 11.3646Z" fill="#EC9937"/>
<path d="M16.6537 11.8092C16.7118 11.6809 16.8644 11.5974 17.0326 11.6021C17.2005 11.6068 17.3458 11.6988 17.3927 11.8301C17.4028 11.8586 17.4079 11.8881 17.4079 11.9178C17.4083 12.0444 17.316 12.159 17.1732 12.2092C17.0304 12.2593 16.8644 12.2354 16.7514 12.1484C16.6384 12.0615 16.5999 11.928 16.6537 11.8092Z" fill="#D2E3B4"/>
<path d="M13.0984 1.2283C13.3954 1.06785 13.6741 0.869358 13.9815 0.710414C15.0799 0.14245 16.189 -0.0759978 17.4806 0.0230575C18.8613 0.09879 19.8288 0.543726 20.8628 1.2479L20.3229 1.65163C19.04 0.868589 18.7577 0.735037 17.1634 0.576744C15.568 0.592115 14.8821 0.89605 13.6569 1.66177L13.0984 1.2283Z" fill="#56A371"/>
<path d="M17.4806 0.0230713C18.8612 0.0988038 19.8288 0.54374 20.8628 1.24792L20.3229 1.65164C19.04 0.868603 18.7577 0.735051 17.1634 0.576758C17.6208 0.520653 18.0506 0.590207 18.4815 0.717167C18.9938 0.868277 18.9535 0.790683 19.3365 0.467563C18.9462 0.311901 18.5437 0.223339 18.1219 0.145863C17.9282 0.110361 17.5903 0.102114 17.4806 0.0230713Z" fill="#78B05C"/>
<path d="M16.4975 1.23229C17.7891 1.11822 18.814 1.39904 19.7318 2.13836C19.5752 2.24262 19.3736 2.41596 19.2246 2.53745C18.5677 2.1007 18.3479 1.98542 17.5271 1.82996C16.3478 1.72248 15.6651 1.93703 14.7811 2.54883L14.2344 2.12657C14.9819 1.61036 15.5247 1.36841 16.4975 1.23229Z" fill="#56A371"/>
<path d="M16.9062 2.44609C17.5896 2.41181 18.156 2.61633 18.6312 3.00738C18.4616 3.16381 18.3035 3.29411 18.1226 3.44173C17.7654 3.15813 17.5507 3.07652 17.074 3.03821C16.5555 2.99431 16.2038 3.19715 15.8428 3.46443C15.6762 3.30514 15.4964 3.16121 15.3158 3.01246C15.842 2.62671 16.2068 2.48952 16.9062 2.44609Z" fill="#56A371"/>
<path d="M15.4178 11.5156C15.3124 12.0129 15.3404 12.1994 15.6165 12.6415C15.2639 12.6941 14.9182 12.7503 14.5768 12.842C12.8106 13.3164 11.2028 14.3838 10.3219 15.7197C10.1871 15.924 10.0543 16.1277 9.92617 16.3336C8.48739 19.3934 9.71918 22.5692 13.2608 24.2296C13.6196 24.3978 14.0229 24.503 14.3578 24.6535C15.3965 24.908 15.8723 25.0251 16.9934 25.0254L16.9905 26.1788C14.9527 26.201 12.6395 25.5158 11.1167 24.4102C10.9365 24.313 10.7126 24.1259 10.5556 24.0029C8.18361 22.1477 7.30461 19.1459 8.30816 16.6018C8.46465 16.0973 9.04938 15.1455 9.42223 14.7101C10.9276 12.9522 12.8653 11.929 15.4178 11.5156Z" fill="#257FBB"/>
<defs>
<linearGradient id="paint0_linear_100_1739" x1="26.5" y1="3.10901" x2="-2.81629" y2="17.2848" gradientUnits="userSpaceOnUse">
<stop stop-color="#A5C340"/>
<stop offset="1" stop-color="#008001"/>
</linearGradient>
<linearGradient id="paint1_linear_100_1739" x1="17.0359" y1="18.8538" x2="25.9672" y2="18.8633" gradientUnits="userSpaceOnUse">
<stop stop-color="#E46929"/>
<stop offset="1" stop-color="#F8A829"/>
</linearGradient>
<linearGradient id="paint2_linear_100_1739" x1="13.1028" y1="22.3219" x2="14.0503" y2="16.1225" gradientUnits="userSpaceOnUse">
<stop stop-color="#2975AD"/>
<stop offset="1" stop-color="#20B8EB"/>
</linearGradient>
<linearGradient id="paint3_linear_100_1739" x1="16.7952" y1="18.743" x2="17.436" y2="22.9928" gradientUnits="userSpaceOnUse">
<stop stop-color="#EE9729"/>
<stop offset="1" stop-color="#008001"/>
</linearGradient>
</defs>
</svg>
